<mxfile host="app.diagrams.net" modified="2020-10-22T12:52:18.542Z" agent="5.0 (Macintosh; Intel Mac OS X 10_15_7) AppleWebKit/537.36 (KHTML, like Gecko) Chrome/85.0.4183.121 Safari/537.36" etag="UBoGuqJjpmk90BjE03RA" version="13.8.1" type="github" pages="4">
  <diagram id="RQpPOk5gB5-XfgSWKMVH" name="Structural Overview">
    <mxGraphModel dx="946" dy="518" grid="1" gridSize="10" guides="1" tooltips="1" connect="1" arrows="1" fold="1" page="1" pageScale="1" pageWidth="827" pageHeight="1169" math="0" shadow="0">
      <root>
        <mxCell id="0" />
        <mxCell id="1" parent="0" />
        <mxCell id="J0ssoO2-1Emzlfz0JQzF-1" value="Stream Manager" style="rounded=0;whiteSpace=wrap;html=1;" parent="1" vertex="1">
          <mxGeometry x="200" y="80" width="120" height="60" as="geometry" />
        </mxCell>
        <mxCell id="J0ssoO2-1Emzlfz0JQzF-8" value="" style="edgeStyle=orthogonalEdgeStyle;rounded=0;orthogonalLoop=1;jettySize=auto;html=1;" parent="1" source="J0ssoO2-1Emzlfz0JQzF-2" target="J0ssoO2-1Emzlfz0JQzF-7" edge="1">
          <mxGeometry relative="1" as="geometry" />
        </mxCell>
        <mxCell id="J0ssoO2-1Emzlfz0JQzF-2" value="Treasury" style="rounded=0;whiteSpace=wrap;html=1;" parent="1" vertex="1">
          <mxGeometry x="70" y="200" width="120" height="60" as="geometry" />
        </mxCell>
        <mxCell id="J0ssoO2-1Emzlfz0JQzF-4" value="" style="endArrow=classic;html=1;exitX=0;exitY=1;exitDx=0;exitDy=0;entryX=0.5;entryY=0;entryDx=0;entryDy=0;" parent="1" source="J0ssoO2-1Emzlfz0JQzF-1" target="J0ssoO2-1Emzlfz0JQzF-2" edge="1">
          <mxGeometry width="50" height="50" relative="1" as="geometry">
            <mxPoint x="160" y="210" as="sourcePoint" />
            <mxPoint x="80" y="160" as="targetPoint" />
          </mxGeometry>
        </mxCell>
        <mxCell id="J0ssoO2-1Emzlfz0JQzF-5" value="Stream" style="rounded=0;whiteSpace=wrap;html=1;" parent="1" vertex="1">
          <mxGeometry x="320" y="200" width="120" height="60" as="geometry" />
        </mxCell>
        <mxCell id="J0ssoO2-1Emzlfz0JQzF-6" value="" style="endArrow=classic;html=1;exitX=1;exitY=1;exitDx=0;exitDy=0;entryX=0.5;entryY=0;entryDx=0;entryDy=0;" parent="1" source="J0ssoO2-1Emzlfz0JQzF-1" target="J0ssoO2-1Emzlfz0JQzF-5" edge="1">
          <mxGeometry width="50" height="50" relative="1" as="geometry">
            <mxPoint x="420" y="140" as="sourcePoint" />
            <mxPoint x="300" y="160" as="targetPoint" />
          </mxGeometry>
        </mxCell>
        <mxCell id="J0ssoO2-1Emzlfz0JQzF-10" value="" style="edgeStyle=orthogonalEdgeStyle;rounded=0;orthogonalLoop=1;jettySize=auto;html=1;" parent="1" source="J0ssoO2-1Emzlfz0JQzF-7" target="J0ssoO2-1Emzlfz0JQzF-9" edge="1">
          <mxGeometry relative="1" as="geometry" />
        </mxCell>
        <mxCell id="J0ssoO2-1Emzlfz0JQzF-7" value="Exchange Adaptor" style="whiteSpace=wrap;html=1;rounded=0;" parent="1" vertex="1">
          <mxGeometry x="70" y="340" width="120" height="60" as="geometry" />
        </mxCell>
        <mxCell id="J0ssoO2-1Emzlfz0JQzF-9" value="1Inch" style="whiteSpace=wrap;html=1;rounded=0;" parent="1" vertex="1">
          <mxGeometry x="70" y="480" width="120" height="60" as="geometry" />
        </mxCell>
      </root>
    </mxGraphModel>
  </diagram>
  <diagram id="TFOLW9RpSK_BMYMpfMgm" name="Stream Manager">
    <mxGraphModel dx="946" dy="518" grid="1" gridSize="10" guides="1" tooltips="1" connect="1" arrows="1" fold="1" page="1" pageScale="1" pageWidth="827" pageHeight="1169" math="0" shadow="0">
      <root>
        <mxCell id="8k4hjFr0MId2D8JuOCER-0" />
        <mxCell id="8k4hjFr0MId2D8JuOCER-1" parent="8k4hjFr0MId2D8JuOCER-0" />
        <mxCell id="hmgrfY-6WUpqcN2TdgA0-11" value="" style="edgeStyle=orthogonalEdgeStyle;rounded=0;orthogonalLoop=1;jettySize=auto;html=1;" edge="1" parent="8k4hjFr0MId2D8JuOCER-1" source="hmgrfY-6WUpqcN2TdgA0-1" target="hmgrfY-6WUpqcN2TdgA0-8">
          <mxGeometry relative="1" as="geometry" />
        </mxCell>
        <mxCell id="j8Yq9DtPGsYHBm5a7cwz-8" value="" style="edgeStyle=none;rounded=0;orthogonalLoop=1;jettySize=auto;html=1;endArrow=classic;endFill=1;strokeColor=#000000;" edge="1" parent="8k4hjFr0MId2D8JuOCER-1" source="hmgrfY-6WUpqcN2TdgA0-1">
          <mxGeometry relative="1" as="geometry">
            <mxPoint x="140" y="260" as="targetPoint" />
          </mxGeometry>
        </mxCell>
        <mxCell id="hmgrfY-6WUpqcN2TdgA0-1" value="Start Stream" style="rounded=0;whiteSpace=wrap;html=1;fillColor=#dae8fc;strokeColor=#6c8ebf;" vertex="1" parent="8k4hjFr0MId2D8JuOCER-1">
          <mxGeometry x="80" y="120" width="120" height="60" as="geometry" />
        </mxCell>
        <mxCell id="j8Yq9DtPGsYHBm5a7cwz-1" value="" style="edgeStyle=orthogonalEdgeStyle;rounded=0;orthogonalLoop=1;jettySize=auto;html=1;" edge="1" parent="8k4hjFr0MId2D8JuOCER-1" source="hmgrfY-6WUpqcN2TdgA0-8" target="j8Yq9DtPGsYHBm5a7cwz-0">
          <mxGeometry relative="1" as="geometry" />
        </mxCell>
        <mxCell id="hmgrfY-6WUpqcN2TdgA0-8" value="Treasury" style="rounded=1;whiteSpace=wrap;html=1;fillColor=#e1d5e7;strokeColor=#9673a6;" vertex="1" parent="8k4hjFr0MId2D8JuOCER-1">
          <mxGeometry x="230" y="120" width="120" height="60" as="geometry" />
        </mxCell>
        <mxCell id="hmgrfY-6WUpqcN2TdgA0-10" value="" style="edgeStyle=orthogonalEdgeStyle;rounded=0;orthogonalLoop=1;jettySize=auto;html=1;" edge="1" parent="8k4hjFr0MId2D8JuOCER-1" source="hmgrfY-6WUpqcN2TdgA0-9" target="hmgrfY-6WUpqcN2TdgA0-1">
          <mxGeometry relative="1" as="geometry" />
        </mxCell>
        <mxCell id="hmgrfY-6WUpqcN2TdgA0-9" value="Stream Manager" style="rounded=1;whiteSpace=wrap;html=1;fillColor=#e1d5e7;strokeColor=#9673a6;" vertex="1" parent="8k4hjFr0MId2D8JuOCER-1">
          <mxGeometry x="80" y="30" width="120" height="60" as="geometry" />
        </mxCell>
        <mxCell id="j8Yq9DtPGsYHBm5a7cwz-3" value="" style="edgeStyle=orthogonalEdgeStyle;rounded=0;orthogonalLoop=1;jettySize=auto;html=1;" edge="1" parent="8k4hjFr0MId2D8JuOCER-1" source="j8Yq9DtPGsYHBm5a7cwz-0" target="j8Yq9DtPGsYHBm5a7cwz-2">
          <mxGeometry relative="1" as="geometry" />
        </mxCell>
        <mxCell id="j8Yq9DtPGsYHBm5a7cwz-4" value="No" style="edgeLabel;html=1;align=center;verticalAlign=middle;resizable=0;points=[];" vertex="1" connectable="0" parent="j8Yq9DtPGsYHBm5a7cwz-3">
          <mxGeometry x="0.1143" y="-2" relative="1" as="geometry">
            <mxPoint as="offset" />
          </mxGeometry>
        </mxCell>
        <mxCell id="j8Yq9DtPGsYHBm5a7cwz-6" value="" style="edgeStyle=orthogonalEdgeStyle;rounded=0;orthogonalLoop=1;jettySize=auto;html=1;endArrow=none;endFill=0;" edge="1" parent="8k4hjFr0MId2D8JuOCER-1" source="j8Yq9DtPGsYHBm5a7cwz-10">
          <mxGeometry relative="1" as="geometry">
            <mxPoint x="140" y="180" as="targetPoint" />
            <Array as="points" />
          </mxGeometry>
        </mxCell>
        <mxCell id="j8Yq9DtPGsYHBm5a7cwz-0" value="&lt;font style=&quot;font-size: 9px&quot;&gt;Has sufficient&lt;br&gt;&amp;nbsp;available balance&lt;/font&gt;" style="rhombus;whiteSpace=wrap;html=1;rounded=0;fillColor=#fff2cc;strokeColor=#d6b656;" vertex="1" parent="8k4hjFr0MId2D8JuOCER-1">
          <mxGeometry x="400" y="100" width="100" height="100" as="geometry" />
        </mxCell>
        <mxCell id="j8Yq9DtPGsYHBm5a7cwz-2" value="Revert" style="whiteSpace=wrap;html=1;rounded=0;strokeColor=#b85450;fillColor=#f8cecc;" vertex="1" parent="8k4hjFr0MId2D8JuOCER-1">
          <mxGeometry x="570" y="120" width="120" height="60" as="geometry" />
        </mxCell>
        <mxCell id="j8Yq9DtPGsYHBm5a7cwz-14" value="" style="edgeStyle=none;rounded=0;orthogonalLoop=1;jettySize=auto;html=1;endArrow=classic;endFill=1;strokeColor=#000000;" edge="1" parent="8k4hjFr0MId2D8JuOCER-1" source="j8Yq9DtPGsYHBm5a7cwz-9">
          <mxGeometry relative="1" as="geometry">
            <mxPoint x="140" y="350" as="targetPoint" />
          </mxGeometry>
        </mxCell>
        <mxCell id="j8Yq9DtPGsYHBm5a7cwz-9" value="Stream" style="rounded=1;whiteSpace=wrap;html=1;fillColor=#e1d5e7;strokeColor=#9673a6;" vertex="1" parent="8k4hjFr0MId2D8JuOCER-1">
          <mxGeometry x="80" y="260" width="120" height="60" as="geometry" />
        </mxCell>
        <mxCell id="j8Yq9DtPGsYHBm5a7cwz-10" value="Allocate funds" style="rounded=0;whiteSpace=wrap;html=1;fillColor=#dae8fc;strokeColor=#6c8ebf;" vertex="1" parent="8k4hjFr0MId2D8JuOCER-1">
          <mxGeometry x="250" y="200" width="120" height="60" as="geometry" />
        </mxCell>
        <mxCell id="j8Yq9DtPGsYHBm5a7cwz-11" value="" style="edgeStyle=orthogonalEdgeStyle;rounded=0;orthogonalLoop=1;jettySize=auto;html=1;endArrow=classic;endFill=1;" edge="1" parent="8k4hjFr0MId2D8JuOCER-1" source="j8Yq9DtPGsYHBm5a7cwz-0" target="j8Yq9DtPGsYHBm5a7cwz-10">
          <mxGeometry relative="1" as="geometry">
            <mxPoint x="450" y="200" as="sourcePoint" />
            <mxPoint x="140" y="180" as="targetPoint" />
            <Array as="points">
              <mxPoint x="450" y="230" />
            </Array>
          </mxGeometry>
        </mxCell>
        <mxCell id="j8Yq9DtPGsYHBm5a7cwz-34" value="Yes" style="edgeLabel;html=1;align=center;verticalAlign=middle;resizable=0;points=[];" vertex="1" connectable="0" parent="j8Yq9DtPGsYHBm5a7cwz-11">
          <mxGeometry x="-0.6364" y="-1" relative="1" as="geometry">
            <mxPoint as="offset" />
          </mxGeometry>
        </mxCell>
        <mxCell id="j8Yq9DtPGsYHBm5a7cwz-15" value="Create Stream" style="rounded=0;whiteSpace=wrap;html=1;fillColor=#d5e8d4;strokeColor=#82b366;" vertex="1" parent="8k4hjFr0MId2D8JuOCER-1">
          <mxGeometry x="80" y="350" width="120" height="60" as="geometry" />
        </mxCell>
        <mxCell id="j8Yq9DtPGsYHBm5a7cwz-16" value="" style="edgeStyle=orthogonalEdgeStyle;rounded=0;orthogonalLoop=1;jettySize=auto;html=1;" edge="1" parent="8k4hjFr0MId2D8JuOCER-1" source="j8Yq9DtPGsYHBm5a7cwz-18" target="j8Yq9DtPGsYHBm5a7cwz-20">
          <mxGeometry relative="1" as="geometry" />
        </mxCell>
        <mxCell id="j8Yq9DtPGsYHBm5a7cwz-17" value="" style="edgeStyle=none;rounded=0;orthogonalLoop=1;jettySize=auto;html=1;endArrow=classic;endFill=1;strokeColor=#000000;" edge="1" parent="8k4hjFr0MId2D8JuOCER-1" source="j8Yq9DtPGsYHBm5a7cwz-18">
          <mxGeometry relative="1" as="geometry">
            <mxPoint x="140" y="710" as="targetPoint" />
          </mxGeometry>
        </mxCell>
        <mxCell id="j8Yq9DtPGsYHBm5a7cwz-18" value="Claim from stream" style="rounded=0;whiteSpace=wrap;html=1;fillColor=#dae8fc;strokeColor=#6c8ebf;" vertex="1" parent="8k4hjFr0MId2D8JuOCER-1">
          <mxGeometry x="80" y="570" width="120" height="60" as="geometry" />
        </mxCell>
        <mxCell id="j8Yq9DtPGsYHBm5a7cwz-19" value="" style="edgeStyle=orthogonalEdgeStyle;rounded=0;orthogonalLoop=1;jettySize=auto;html=1;" edge="1" parent="8k4hjFr0MId2D8JuOCER-1" source="j8Yq9DtPGsYHBm5a7cwz-20" target="j8Yq9DtPGsYHBm5a7cwz-26">
          <mxGeometry relative="1" as="geometry" />
        </mxCell>
        <mxCell id="j8Yq9DtPGsYHBm5a7cwz-20" value="Stream" style="rounded=1;whiteSpace=wrap;html=1;fillColor=#e1d5e7;strokeColor=#9673a6;" vertex="1" parent="8k4hjFr0MId2D8JuOCER-1">
          <mxGeometry x="230" y="570" width="120" height="60" as="geometry" />
        </mxCell>
        <mxCell id="j8Yq9DtPGsYHBm5a7cwz-21" value="" style="edgeStyle=orthogonalEdgeStyle;rounded=0;orthogonalLoop=1;jettySize=auto;html=1;" edge="1" parent="8k4hjFr0MId2D8JuOCER-1" source="j8Yq9DtPGsYHBm5a7cwz-22" target="j8Yq9DtPGsYHBm5a7cwz-18">
          <mxGeometry relative="1" as="geometry" />
        </mxCell>
        <mxCell id="j8Yq9DtPGsYHBm5a7cwz-22" value="Stream Manager" style="rounded=1;whiteSpace=wrap;html=1;fillColor=#e1d5e7;strokeColor=#9673a6;" vertex="1" parent="8k4hjFr0MId2D8JuOCER-1">
          <mxGeometry x="80" y="480" width="120" height="60" as="geometry" />
        </mxCell>
        <mxCell id="j8Yq9DtPGsYHBm5a7cwz-23" value="" style="edgeStyle=orthogonalEdgeStyle;rounded=0;orthogonalLoop=1;jettySize=auto;html=1;" edge="1" parent="8k4hjFr0MId2D8JuOCER-1" source="j8Yq9DtPGsYHBm5a7cwz-26" target="j8Yq9DtPGsYHBm5a7cwz-27">
          <mxGeometry relative="1" as="geometry" />
        </mxCell>
        <mxCell id="j8Yq9DtPGsYHBm5a7cwz-24" value="No" style="edgeLabel;html=1;align=center;verticalAlign=middle;resizable=0;points=[];" vertex="1" connectable="0" parent="j8Yq9DtPGsYHBm5a7cwz-23">
          <mxGeometry x="0.1143" y="-2" relative="1" as="geometry">
            <mxPoint as="offset" />
          </mxGeometry>
        </mxCell>
        <mxCell id="j8Yq9DtPGsYHBm5a7cwz-26" value="&lt;font style=&quot;font-size: 9px&quot;&gt;Has accrued&amp;nbsp;balance&lt;/font&gt;" style="rhombus;whiteSpace=wrap;html=1;rounded=0;fillColor=#fff2cc;strokeColor=#d6b656;" vertex="1" parent="8k4hjFr0MId2D8JuOCER-1">
          <mxGeometry x="400" y="550" width="100" height="100" as="geometry" />
        </mxCell>
        <mxCell id="j8Yq9DtPGsYHBm5a7cwz-27" value="Revert" style="whiteSpace=wrap;html=1;rounded=0;strokeColor=#b85450;fillColor=#f8cecc;" vertex="1" parent="8k4hjFr0MId2D8JuOCER-1">
          <mxGeometry x="570" y="570" width="120" height="60" as="geometry" />
        </mxCell>
        <mxCell id="j8Yq9DtPGsYHBm5a7cwz-28" value="" style="edgeStyle=none;rounded=0;orthogonalLoop=1;jettySize=auto;html=1;endArrow=classic;endFill=1;strokeColor=#000000;" edge="1" parent="8k4hjFr0MId2D8JuOCER-1" source="j8Yq9DtPGsYHBm5a7cwz-29">
          <mxGeometry relative="1" as="geometry">
            <mxPoint x="140" y="800" as="targetPoint" />
          </mxGeometry>
        </mxCell>
        <mxCell id="j8Yq9DtPGsYHBm5a7cwz-29" value="Treasury" style="rounded=1;whiteSpace=wrap;html=1;fillColor=#e1d5e7;strokeColor=#9673a6;" vertex="1" parent="8k4hjFr0MId2D8JuOCER-1">
          <mxGeometry x="80" y="710" width="120" height="60" as="geometry" />
        </mxCell>
        <mxCell id="j8Yq9DtPGsYHBm5a7cwz-31" value="" style="edgeStyle=orthogonalEdgeStyle;rounded=0;orthogonalLoop=1;jettySize=auto;html=1;endArrow=none;endFill=0;" edge="1" parent="8k4hjFr0MId2D8JuOCER-1" source="j8Yq9DtPGsYHBm5a7cwz-26">
          <mxGeometry relative="1" as="geometry">
            <mxPoint x="450" y="650" as="sourcePoint" />
            <mxPoint x="140" y="670" as="targetPoint" />
            <Array as="points">
              <mxPoint x="450" y="680" />
              <mxPoint x="190" y="680" />
              <mxPoint x="140" y="680" />
            </Array>
          </mxGeometry>
        </mxCell>
        <mxCell id="j8Yq9DtPGsYHBm5a7cwz-36" value="Yes" style="edgeLabel;html=1;align=center;verticalAlign=middle;resizable=0;points=[];" vertex="1" connectable="0" parent="j8Yq9DtPGsYHBm5a7cwz-31">
          <mxGeometry x="-0.1543" y="-1" relative="1" as="geometry">
            <mxPoint as="offset" />
          </mxGeometry>
        </mxCell>
        <mxCell id="j8Yq9DtPGsYHBm5a7cwz-38" value="" style="edgeStyle=none;rounded=0;orthogonalLoop=1;jettySize=auto;html=1;endArrow=none;endFill=0;strokeColor=#000000;" edge="1" parent="8k4hjFr0MId2D8JuOCER-1" source="j8Yq9DtPGsYHBm5a7cwz-32" target="j8Yq9DtPGsYHBm5a7cwz-37">
          <mxGeometry relative="1" as="geometry" />
        </mxCell>
        <mxCell id="j8Yq9DtPGsYHBm5a7cwz-32" value="Decrease allocated balance of Sender" style="rounded=0;whiteSpace=wrap;html=1;fillColor=#f5f5f5;strokeColor=#666666;fontColor=#333333;" vertex="1" parent="8k4hjFr0MId2D8JuOCER-1">
          <mxGeometry x="80" y="800" width="120" height="60" as="geometry" />
        </mxCell>
        <mxCell id="j8Yq9DtPGsYHBm5a7cwz-37" value="Increase balance of recipient&amp;nbsp;" style="rounded=0;whiteSpace=wrap;html=1;fillColor=#d5e8d4;strokeColor=#82b366;" vertex="1" parent="8k4hjFr0MId2D8JuOCER-1">
          <mxGeometry x="280" y="800" width="120" height="60" as="geometry" />
        </mxCell>
      </root>
    </mxGraphModel>
  </diagram>
  <diagram id="2c5hA6k-da-8D0cI8Lqc" name="Treasury">
    <mxGraphModel dx="946" dy="518" grid="1" gridSize="10" guides="1" tooltips="1" connect="1" arrows="1" fold="1" page="1" pageScale="1" pageWidth="827" pageHeight="1169" math="0" shadow="0">
      <root>
        <mxCell id="aZCYF7ROSy9W5zalCKX1-0" />
        <mxCell id="aZCYF7ROSy9W5zalCKX1-1" parent="aZCYF7ROSy9W5zalCKX1-0" />
        <mxCell id="aZCYF7ROSy9W5zalCKX1-4" value="" style="edgeStyle=orthogonalEdgeStyle;rounded=0;orthogonalLoop=1;jettySize=auto;html=1;" parent="aZCYF7ROSy9W5zalCKX1-1" source="aZCYF7ROSy9W5zalCKX1-2" target="aZCYF7ROSy9W5zalCKX1-3" edge="1">
          <mxGeometry relative="1" as="geometry" />
        </mxCell>
        <mxCell id="aZCYF7ROSy9W5zalCKX1-2" value="Deposit&lt;br&gt;(Action)" style="rounded=0;whiteSpace=wrap;html=1;fillColor=#dae8fc;strokeColor=#6c8ebf;" parent="aZCYF7ROSy9W5zalCKX1-1" vertex="1">
          <mxGeometry x="80" y="40" width="120" height="60" as="geometry" />
        </mxCell>
        <mxCell id="aZCYF7ROSy9W5zalCKX1-3" value="Increase token balance for address" style="whiteSpace=wrap;html=1;rounded=0;fillColor=#d5e8d4;strokeColor=#82b366;" parent="aZCYF7ROSy9W5zalCKX1-1" vertex="1">
          <mxGeometry x="80" y="140" width="120" height="60" as="geometry" />
        </mxCell>
        <mxCell id="aZCYF7ROSy9W5zalCKX1-9" value="" style="edgeStyle=orthogonalEdgeStyle;rounded=0;orthogonalLoop=1;jettySize=auto;html=1;" parent="aZCYF7ROSy9W5zalCKX1-1" source="aZCYF7ROSy9W5zalCKX1-6" target="aZCYF7ROSy9W5zalCKX1-8" edge="1">
          <mxGeometry relative="1" as="geometry" />
        </mxCell>
        <mxCell id="aZCYF7ROSy9W5zalCKX1-6" value="Withdraw&lt;br&gt;(Action)" style="rounded=0;whiteSpace=wrap;html=1;fillColor=#dae8fc;strokeColor=#6c8ebf;" parent="aZCYF7ROSy9W5zalCKX1-1" vertex="1">
          <mxGeometry x="430" y="40" width="120" height="60" as="geometry" />
        </mxCell>
        <mxCell id="aZCYF7ROSy9W5zalCKX1-11" value="" style="edgeStyle=orthogonalEdgeStyle;rounded=0;orthogonalLoop=1;jettySize=auto;html=1;" parent="aZCYF7ROSy9W5zalCKX1-1" source="aZCYF7ROSy9W5zalCKX1-8" target="aZCYF7ROSy9W5zalCKX1-10" edge="1">
          <mxGeometry relative="1" as="geometry" />
        </mxCell>
        <mxCell id="aZCYF7ROSy9W5zalCKX1-12" value="No" style="edgeLabel;html=1;align=center;verticalAlign=middle;resizable=0;points=[];" parent="aZCYF7ROSy9W5zalCKX1-11" vertex="1" connectable="0">
          <mxGeometry x="0.1429" y="4" relative="1" as="geometry">
            <mxPoint as="offset" />
          </mxGeometry>
        </mxCell>
        <mxCell id="aZCYF7ROSy9W5zalCKX1-14" value="Yes" style="edgeStyle=orthogonalEdgeStyle;rounded=0;orthogonalLoop=1;jettySize=auto;html=1;" parent="aZCYF7ROSy9W5zalCKX1-1" source="aZCYF7ROSy9W5zalCKX1-8" target="aZCYF7ROSy9W5zalCKX1-13" edge="1">
          <mxGeometry relative="1" as="geometry" />
        </mxCell>
        <mxCell id="aZCYF7ROSy9W5zalCKX1-8" value="&lt;font style=&quot;font-size: 9px&quot;&gt;Has sufficient&lt;br&gt;&amp;nbsp;available balance&lt;/font&gt;" style="rhombus;whiteSpace=wrap;html=1;rounded=0;fillColor=#fff2cc;strokeColor=#d6b656;" parent="aZCYF7ROSy9W5zalCKX1-1" vertex="1">
          <mxGeometry x="440" y="140" width="100" height="100" as="geometry" />
        </mxCell>
        <mxCell id="aZCYF7ROSy9W5zalCKX1-10" value="Revert" style="whiteSpace=wrap;html=1;rounded=0;fillColor=#f8cecc;strokeColor=#b85450;" parent="aZCYF7ROSy9W5zalCKX1-1" vertex="1">
          <mxGeometry x="610" y="160" width="120" height="60" as="geometry" />
        </mxCell>
        <mxCell id="aZCYF7ROSy9W5zalCKX1-13" value="Decrease token balance for address" style="whiteSpace=wrap;html=1;rounded=0;fillColor=#d5e8d4;strokeColor=#82b366;" parent="aZCYF7ROSy9W5zalCKX1-1" vertex="1">
          <mxGeometry x="430" y="280" width="120" height="60" as="geometry" />
        </mxCell>
        <mxCell id="aZCYF7ROSy9W5zalCKX1-17" value="" style="edgeStyle=orthogonalEdgeStyle;rounded=0;orthogonalLoop=1;jettySize=auto;html=1;" parent="aZCYF7ROSy9W5zalCKX1-1" source="aZCYF7ROSy9W5zalCKX1-15" target="aZCYF7ROSy9W5zalCKX1-16" edge="1">
          <mxGeometry relative="1" as="geometry" />
        </mxCell>
        <mxCell id="GG0hBFgsfGuYvtM_4p9K-4" value="Only Stream Operator" style="edgeLabel;html=1;align=center;verticalAlign=middle;resizable=0;points=[];" vertex="1" connectable="0" parent="aZCYF7ROSy9W5zalCKX1-17">
          <mxGeometry x="0.15" y="-1" relative="1" as="geometry">
            <mxPoint as="offset" />
          </mxGeometry>
        </mxCell>
        <mxCell id="aZCYF7ROSy9W5zalCKX1-15" value="Allocate Funds&lt;br&gt;(Action)" style="rounded=0;whiteSpace=wrap;html=1;fillColor=#dae8fc;strokeColor=#6c8ebf;" parent="aZCYF7ROSy9W5zalCKX1-1" vertex="1">
          <mxGeometry x="80" y="410" width="120" height="60" as="geometry" />
        </mxCell>
        <mxCell id="aZCYF7ROSy9W5zalCKX1-21" value="" style="edgeStyle=orthogonalEdgeStyle;rounded=0;orthogonalLoop=1;jettySize=auto;html=1;" parent="aZCYF7ROSy9W5zalCKX1-1" source="aZCYF7ROSy9W5zalCKX1-16" target="aZCYF7ROSy9W5zalCKX1-20" edge="1">
          <mxGeometry relative="1" as="geometry" />
        </mxCell>
        <mxCell id="aZCYF7ROSy9W5zalCKX1-22" value="No" style="edgeLabel;html=1;align=center;verticalAlign=middle;resizable=0;points=[];" parent="aZCYF7ROSy9W5zalCKX1-21" vertex="1" connectable="0">
          <mxGeometry x="-0.28" y="-2" relative="1" as="geometry">
            <mxPoint as="offset" />
          </mxGeometry>
        </mxCell>
        <mxCell id="aZCYF7ROSy9W5zalCKX1-24" value="" style="edgeStyle=orthogonalEdgeStyle;rounded=0;orthogonalLoop=1;jettySize=auto;html=1;" parent="aZCYF7ROSy9W5zalCKX1-1" source="aZCYF7ROSy9W5zalCKX1-16" target="aZCYF7ROSy9W5zalCKX1-23" edge="1">
          <mxGeometry relative="1" as="geometry" />
        </mxCell>
        <mxCell id="aZCYF7ROSy9W5zalCKX1-25" value="Yes" style="edgeLabel;html=1;align=center;verticalAlign=middle;resizable=0;points=[];" parent="aZCYF7ROSy9W5zalCKX1-24" vertex="1" connectable="0">
          <mxGeometry x="-0.36" y="2" relative="1" as="geometry">
            <mxPoint as="offset" />
          </mxGeometry>
        </mxCell>
        <mxCell id="aZCYF7ROSy9W5zalCKX1-16" value="&lt;font style=&quot;font-size: 9px&quot;&gt;Has sufficient&lt;br&gt;&amp;nbsp;available balance&lt;/font&gt;" style="rhombus;whiteSpace=wrap;html=1;rounded=0;fillColor=#fff2cc;strokeColor=#d6b656;" parent="aZCYF7ROSy9W5zalCKX1-1" vertex="1">
          <mxGeometry x="90" y="510" width="100" height="100" as="geometry" />
        </mxCell>
        <mxCell id="aZCYF7ROSy9W5zalCKX1-20" value="Revert" style="whiteSpace=wrap;html=1;rounded=0;fillColor=#f8cecc;strokeColor=#b85450;" parent="aZCYF7ROSy9W5zalCKX1-1" vertex="1">
          <mxGeometry x="240" y="530" width="120" height="60" as="geometry" />
        </mxCell>
        <mxCell id="aZCYF7ROSy9W5zalCKX1-23" value="Decrease available funds, increase allocated funds" style="rounded=0;whiteSpace=wrap;html=1;fillColor=#d5e8d4;strokeColor=#82b366;" parent="aZCYF7ROSy9W5zalCKX1-1" vertex="1">
          <mxGeometry x="80" y="700" width="120" height="60" as="geometry" />
        </mxCell>
        <mxCell id="aZCYF7ROSy9W5zalCKX1-26" value="" style="edgeStyle=orthogonalEdgeStyle;rounded=0;orthogonalLoop=1;jettySize=auto;html=1;" parent="aZCYF7ROSy9W5zalCKX1-1" source="aZCYF7ROSy9W5zalCKX1-27" target="aZCYF7ROSy9W5zalCKX1-32" edge="1">
          <mxGeometry relative="1" as="geometry" />
        </mxCell>
        <mxCell id="GG0hBFgsfGuYvtM_4p9K-1" value="Only Stream Operator" style="edgeLabel;html=1;align=center;verticalAlign=middle;resizable=0;points=[];" vertex="1" connectable="0" parent="aZCYF7ROSy9W5zalCKX1-26">
          <mxGeometry x="-0.35" y="-2" relative="1" as="geometry">
            <mxPoint as="offset" />
          </mxGeometry>
        </mxCell>
        <mxCell id="aZCYF7ROSy9W5zalCKX1-27" value="Deallocate Funds&lt;br&gt;(Action)" style="rounded=0;whiteSpace=wrap;html=1;fillColor=#dae8fc;strokeColor=#6c8ebf;" parent="aZCYF7ROSy9W5zalCKX1-1" vertex="1">
          <mxGeometry x="430" y="410" width="120" height="60" as="geometry" />
        </mxCell>
        <mxCell id="aZCYF7ROSy9W5zalCKX1-28" value="" style="edgeStyle=orthogonalEdgeStyle;rounded=0;orthogonalLoop=1;jettySize=auto;html=1;" parent="aZCYF7ROSy9W5zalCKX1-1" source="aZCYF7ROSy9W5zalCKX1-32" target="aZCYF7ROSy9W5zalCKX1-33" edge="1">
          <mxGeometry relative="1" as="geometry" />
        </mxCell>
        <mxCell id="aZCYF7ROSy9W5zalCKX1-29" value="No" style="edgeLabel;html=1;align=center;verticalAlign=middle;resizable=0;points=[];" parent="aZCYF7ROSy9W5zalCKX1-28" vertex="1" connectable="0">
          <mxGeometry x="-0.28" y="-2" relative="1" as="geometry">
            <mxPoint as="offset" />
          </mxGeometry>
        </mxCell>
        <mxCell id="aZCYF7ROSy9W5zalCKX1-30" value="" style="edgeStyle=orthogonalEdgeStyle;rounded=0;orthogonalLoop=1;jettySize=auto;html=1;" parent="aZCYF7ROSy9W5zalCKX1-1" source="aZCYF7ROSy9W5zalCKX1-32" target="aZCYF7ROSy9W5zalCKX1-34" edge="1">
          <mxGeometry relative="1" as="geometry" />
        </mxCell>
        <mxCell id="aZCYF7ROSy9W5zalCKX1-31" value="Yes" style="edgeLabel;html=1;align=center;verticalAlign=middle;resizable=0;points=[];" parent="aZCYF7ROSy9W5zalCKX1-30" vertex="1" connectable="0">
          <mxGeometry x="-0.36" y="2" relative="1" as="geometry">
            <mxPoint as="offset" />
          </mxGeometry>
        </mxCell>
        <mxCell id="aZCYF7ROSy9W5zalCKX1-32" value="&lt;font style=&quot;font-size: 9px&quot;&gt;Has sufficient&lt;br&gt;&amp;nbsp;allocated funds&lt;/font&gt;" style="rhombus;whiteSpace=wrap;html=1;rounded=0;fillColor=#fff2cc;strokeColor=#d6b656;" parent="aZCYF7ROSy9W5zalCKX1-1" vertex="1">
          <mxGeometry x="440" y="510" width="100" height="100" as="geometry" />
        </mxCell>
        <mxCell id="aZCYF7ROSy9W5zalCKX1-33" value="Revert" style="whiteSpace=wrap;html=1;rounded=0;fillColor=#f8cecc;strokeColor=#b85450;" parent="aZCYF7ROSy9W5zalCKX1-1" vertex="1">
          <mxGeometry x="590" y="530" width="120" height="60" as="geometry" />
        </mxCell>
        <mxCell id="aZCYF7ROSy9W5zalCKX1-34" value="Increase available funds, decrease allocated funds" style="rounded=0;whiteSpace=wrap;html=1;fillColor=#d5e8d4;strokeColor=#82b366;" parent="aZCYF7ROSy9W5zalCKX1-1" vertex="1">
          <mxGeometry x="430" y="700" width="120" height="60" as="geometry" />
        </mxCell>
        <mxCell id="aZCYF7ROSy9W5zalCKX1-35" value="" style="edgeStyle=orthogonalEdgeStyle;rounded=0;orthogonalLoop=1;jettySize=auto;html=1;" parent="aZCYF7ROSy9W5zalCKX1-1" source="aZCYF7ROSy9W5zalCKX1-36" target="aZCYF7ROSy9W5zalCKX1-41" edge="1">
          <mxGeometry relative="1" as="geometry" />
        </mxCell>
        <mxCell id="GG0hBFgsfGuYvtM_4p9K-2" value="Only Stream Operator" style="edgeLabel;html=1;align=center;verticalAlign=middle;resizable=0;points=[];" vertex="1" connectable="0" parent="aZCYF7ROSy9W5zalCKX1-35">
          <mxGeometry x="-0.2" y="1" relative="1" as="geometry">
            <mxPoint as="offset" />
          </mxGeometry>
        </mxCell>
        <mxCell id="aZCYF7ROSy9W5zalCKX1-36" value="Transfer Funds&lt;br&gt;(Action)" style="rounded=0;whiteSpace=wrap;html=1;fillColor=#dae8fc;strokeColor=#6c8ebf;" parent="aZCYF7ROSy9W5zalCKX1-1" vertex="1">
          <mxGeometry x="80" y="800" width="120" height="60" as="geometry" />
        </mxCell>
        <mxCell id="aZCYF7ROSy9W5zalCKX1-37" value="" style="edgeStyle=orthogonalEdgeStyle;rounded=0;orthogonalLoop=1;jettySize=auto;html=1;" parent="aZCYF7ROSy9W5zalCKX1-1" source="aZCYF7ROSy9W5zalCKX1-41" target="aZCYF7ROSy9W5zalCKX1-42" edge="1">
          <mxGeometry relative="1" as="geometry" />
        </mxCell>
        <mxCell id="aZCYF7ROSy9W5zalCKX1-38" value="No" style="edgeLabel;html=1;align=center;verticalAlign=middle;resizable=0;points=[];" parent="aZCYF7ROSy9W5zalCKX1-37" vertex="1" connectable="0">
          <mxGeometry x="-0.28" y="-2" relative="1" as="geometry">
            <mxPoint as="offset" />
          </mxGeometry>
        </mxCell>
        <mxCell id="aZCYF7ROSy9W5zalCKX1-39" value="" style="edgeStyle=orthogonalEdgeStyle;rounded=0;orthogonalLoop=1;jettySize=auto;html=1;" parent="aZCYF7ROSy9W5zalCKX1-1" source="aZCYF7ROSy9W5zalCKX1-41" target="aZCYF7ROSy9W5zalCKX1-43" edge="1">
          <mxGeometry relative="1" as="geometry" />
        </mxCell>
        <mxCell id="aZCYF7ROSy9W5zalCKX1-40" value="Yes" style="edgeLabel;html=1;align=center;verticalAlign=middle;resizable=0;points=[];" parent="aZCYF7ROSy9W5zalCKX1-39" vertex="1" connectable="0">
          <mxGeometry x="-0.36" y="2" relative="1" as="geometry">
            <mxPoint as="offset" />
          </mxGeometry>
        </mxCell>
        <mxCell id="aZCYF7ROSy9W5zalCKX1-41" value="&lt;span style=&quot;font-size: 9px&quot;&gt;Has sufficient&lt;/span&gt;&lt;br style=&quot;font-size: 9px&quot;&gt;&lt;span style=&quot;font-size: 9px&quot;&gt;&amp;nbsp;allocated funds&lt;/span&gt;" style="rhombus;whiteSpace=wrap;html=1;rounded=0;fillColor=#fff2cc;strokeColor=#d6b656;" parent="aZCYF7ROSy9W5zalCKX1-1" vertex="1">
          <mxGeometry x="90" y="900" width="100" height="100" as="geometry" />
        </mxCell>
        <mxCell id="aZCYF7ROSy9W5zalCKX1-42" value="Revert" style="whiteSpace=wrap;html=1;rounded=0;fillColor=#f8cecc;strokeColor=#b85450;" parent="aZCYF7ROSy9W5zalCKX1-1" vertex="1">
          <mxGeometry x="240" y="920" width="120" height="60" as="geometry" />
        </mxCell>
        <mxCell id="aZCYF7ROSy9W5zalCKX1-43" value="Decrease balance of _from and increase balance of _to" style="rounded=0;whiteSpace=wrap;html=1;fillColor=#d5e8d4;strokeColor=#82b366;" parent="aZCYF7ROSy9W5zalCKX1-1" vertex="1">
          <mxGeometry x="80" y="1090" width="120" height="60" as="geometry" />
        </mxCell>
        <mxCell id="aZCYF7ROSy9W5zalCKX1-52" value="" style="edgeStyle=orthogonalEdgeStyle;rounded=0;orthogonalLoop=1;jettySize=auto;html=1;" parent="aZCYF7ROSy9W5zalCKX1-1" source="aZCYF7ROSy9W5zalCKX1-53" target="aZCYF7ROSy9W5zalCKX1-58" edge="1">
          <mxGeometry relative="1" as="geometry" />
        </mxCell>
        <mxCell id="GG0hBFgsfGuYvtM_4p9K-3" value="Only Stream Operator" style="edgeLabel;html=1;align=center;verticalAlign=middle;resizable=0;points=[];" vertex="1" connectable="0" parent="aZCYF7ROSy9W5zalCKX1-52">
          <mxGeometry x="-0.15" relative="1" as="geometry">
            <mxPoint as="offset" />
          </mxGeometry>
        </mxCell>
        <mxCell id="aZCYF7ROSy9W5zalCKX1-53" value="WithdrawAs&lt;br&gt;(Action)" style="rounded=0;whiteSpace=wrap;html=1;fillColor=#dae8fc;strokeColor=#6c8ebf;" parent="aZCYF7ROSy9W5zalCKX1-1" vertex="1">
          <mxGeometry x="430" y="800" width="120" height="60" as="geometry" />
        </mxCell>
        <mxCell id="aZCYF7ROSy9W5zalCKX1-54" value="" style="edgeStyle=orthogonalEdgeStyle;rounded=0;orthogonalLoop=1;jettySize=auto;html=1;" parent="aZCYF7ROSy9W5zalCKX1-1" source="aZCYF7ROSy9W5zalCKX1-58" target="aZCYF7ROSy9W5zalCKX1-59" edge="1">
          <mxGeometry relative="1" as="geometry" />
        </mxCell>
        <mxCell id="aZCYF7ROSy9W5zalCKX1-55" value="No" style="edgeLabel;html=1;align=center;verticalAlign=middle;resizable=0;points=[];" parent="aZCYF7ROSy9W5zalCKX1-54" vertex="1" connectable="0">
          <mxGeometry x="-0.28" y="-2" relative="1" as="geometry">
            <mxPoint as="offset" />
          </mxGeometry>
        </mxCell>
        <mxCell id="aZCYF7ROSy9W5zalCKX1-56" value="" style="edgeStyle=orthogonalEdgeStyle;rounded=0;orthogonalLoop=1;jettySize=auto;html=1;" parent="aZCYF7ROSy9W5zalCKX1-1" source="aZCYF7ROSy9W5zalCKX1-58" target="aZCYF7ROSy9W5zalCKX1-60" edge="1">
          <mxGeometry relative="1" as="geometry" />
        </mxCell>
        <mxCell id="aZCYF7ROSy9W5zalCKX1-57" value="Yes" style="edgeLabel;html=1;align=center;verticalAlign=middle;resizable=0;points=[];" parent="aZCYF7ROSy9W5zalCKX1-56" vertex="1" connectable="0">
          <mxGeometry x="-0.36" y="2" relative="1" as="geometry">
            <mxPoint as="offset" />
          </mxGeometry>
        </mxCell>
        <mxCell id="aZCYF7ROSy9W5zalCKX1-58" value="&lt;span style=&quot;font-size: 9px&quot;&gt;Has sufficient&lt;/span&gt;&lt;br style=&quot;font-size: 9px&quot;&gt;&lt;span style=&quot;font-size: 9px&quot;&gt;&amp;nbsp;available balance&lt;/span&gt;" style="rhombus;whiteSpace=wrap;html=1;rounded=0;fillColor=#fff2cc;strokeColor=#d6b656;" parent="aZCYF7ROSy9W5zalCKX1-1" vertex="1">
          <mxGeometry x="440" y="900" width="100" height="100" as="geometry" />
        </mxCell>
        <mxCell id="aZCYF7ROSy9W5zalCKX1-59" value="Revert" style="whiteSpace=wrap;html=1;rounded=0;fillColor=#f8cecc;strokeColor=#b85450;" parent="aZCYF7ROSy9W5zalCKX1-1" vertex="1">
          <mxGeometry x="590" y="920" width="120" height="60" as="geometry" />
        </mxCell>
        <mxCell id="aZCYF7ROSy9W5zalCKX1-60" value="Swap token via 1inch" style="rounded=0;whiteSpace=wrap;html=1;fillColor=#d5e8d4;strokeColor=#82b366;" parent="aZCYF7ROSy9W5zalCKX1-1" vertex="1">
          <mxGeometry x="430" y="1090" width="120" height="60" as="geometry" />
        </mxCell>
        <mxCell id="aZCYF7ROSy9W5zalCKX1-61" value="" style="shape=image;verticalLabelPosition=bottom;labelBackgroundColor=#ffffff;verticalAlign=top;aspect=fixed;imageAspect=0;image=https://1inch.exchange/assets/logo.svg;" parent="aZCYF7ROSy9W5zalCKX1-1" vertex="1">
          <mxGeometry x="590" y="1000" width="120" height="150" as="geometry" />
        </mxCell>
      </root>
    </mxGraphModel>
  </diagram>
  <diagram id="zKqY_2lNSOLGjUEqkRqv" name="Stream">
    <mxGraphModel dx="946" dy="518" grid="1" gridSize="10" guides="1" tooltips="1" connect="1" arrows="1" fold="1" page="1" pageScale="1" pageWidth="827" pageHeight="1169" math="0" shadow="0">
      <root>
        <mxCell id="6e4VLR58HWhX286N4Tfz-0" />
        <mxCell id="6e4VLR58HWhX286N4Tfz-1" parent="6e4VLR58HWhX286N4Tfz-0" />
        <mxCell id="XP3KQUoHiulQaQNEzh06-0" value="" style="edgeStyle=orthogonalEdgeStyle;rounded=0;orthogonalLoop=1;jettySize=auto;html=1;" edge="1" parent="6e4VLR58HWhX286N4Tfz-1" source="XP3KQUoHiulQaQNEzh06-1" target="XP3KQUoHiulQaQNEzh06-5">
          <mxGeometry relative="1" as="geometry" />
        </mxCell>
        <mxCell id="XP3KQUoHiulQaQNEzh06-37" value="Only Stream Operator" style="edgeLabel;html=1;align=center;verticalAlign=middle;resizable=0;points=[];" vertex="1" connectable="0" parent="XP3KQUoHiulQaQNEzh06-0">
          <mxGeometry x="0.15" relative="1" as="geometry">
            <mxPoint as="offset" />
          </mxGeometry>
        </mxCell>
        <mxCell id="XP3KQUoHiulQaQNEzh06-1" value="Create Stream&lt;br&gt;(Action)" style="rounded=0;whiteSpace=wrap;html=1;fillColor=#dae8fc;strokeColor=#6c8ebf;" vertex="1" parent="6e4VLR58HWhX286N4Tfz-1">
          <mxGeometry x="40" y="40" width="120" height="60" as="geometry" />
        </mxCell>
        <mxCell id="XP3KQUoHiulQaQNEzh06-2" value="" style="edgeStyle=orthogonalEdgeStyle;rounded=0;orthogonalLoop=1;jettySize=auto;html=1;" edge="1" parent="6e4VLR58HWhX286N4Tfz-1" source="XP3KQUoHiulQaQNEzh06-5" target="XP3KQUoHiulQaQNEzh06-6">
          <mxGeometry relative="1" as="geometry" />
        </mxCell>
        <mxCell id="XP3KQUoHiulQaQNEzh06-3" value="No" style="edgeLabel;html=1;align=center;verticalAlign=middle;resizable=0;points=[];" vertex="1" connectable="0" parent="XP3KQUoHiulQaQNEzh06-2">
          <mxGeometry x="0.1429" y="4" relative="1" as="geometry">
            <mxPoint as="offset" />
          </mxGeometry>
        </mxCell>
        <mxCell id="XP3KQUoHiulQaQNEzh06-4" value="Yes" style="edgeStyle=orthogonalEdgeStyle;rounded=0;orthogonalLoop=1;jettySize=auto;html=1;" edge="1" parent="6e4VLR58HWhX286N4Tfz-1" source="XP3KQUoHiulQaQNEzh06-5" target="XP3KQUoHiulQaQNEzh06-7">
          <mxGeometry relative="1" as="geometry" />
        </mxCell>
        <mxCell id="XP3KQUoHiulQaQNEzh06-5" value="&lt;font style=&quot;font-size: 9px&quot;&gt;Has sufficient&lt;br&gt;&amp;nbsp;available balance&lt;/font&gt;" style="rhombus;whiteSpace=wrap;html=1;rounded=0;fillColor=#fff2cc;strokeColor=#d6b656;" vertex="1" parent="6e4VLR58HWhX286N4Tfz-1">
          <mxGeometry x="50" y="140" width="100" height="100" as="geometry" />
        </mxCell>
        <mxCell id="XP3KQUoHiulQaQNEzh06-6" value="Revert" style="whiteSpace=wrap;html=1;rounded=0;fillColor=#f8cecc;strokeColor=#b85450;" vertex="1" parent="6e4VLR58HWhX286N4Tfz-1">
          <mxGeometry x="220" y="160" width="120" height="60" as="geometry" />
        </mxCell>
        <mxCell id="XP3KQUoHiulQaQNEzh06-9" value="" style="edgeStyle=orthogonalEdgeStyle;rounded=0;orthogonalLoop=1;jettySize=auto;html=1;" edge="1" parent="6e4VLR58HWhX286N4Tfz-1" source="XP3KQUoHiulQaQNEzh06-7" target="XP3KQUoHiulQaQNEzh06-8">
          <mxGeometry relative="1" as="geometry" />
        </mxCell>
        <mxCell id="XP3KQUoHiulQaQNEzh06-7" value="Decrease token balance for sender" style="whiteSpace=wrap;html=1;rounded=0;fillColor=#f5f5f5;strokeColor=#666666;fontColor=#333333;" vertex="1" parent="6e4VLR58HWhX286N4Tfz-1">
          <mxGeometry x="40" y="280" width="120" height="60" as="geometry" />
        </mxCell>
        <mxCell id="XP3KQUoHiulQaQNEzh06-8" value="Create payment stream to recipient" style="whiteSpace=wrap;html=1;rounded=0;strokeColor=#82b366;fillColor=#d5e8d4;" vertex="1" parent="6e4VLR58HWhX286N4Tfz-1">
          <mxGeometry x="220" y="280" width="120" height="60" as="geometry" />
        </mxCell>
        <mxCell id="XP3KQUoHiulQaQNEzh06-10" value="" style="edgeStyle=orthogonalEdgeStyle;rounded=0;orthogonalLoop=1;jettySize=auto;html=1;" edge="1" parent="6e4VLR58HWhX286N4Tfz-1" source="XP3KQUoHiulQaQNEzh06-11" target="XP3KQUoHiulQaQNEzh06-15">
          <mxGeometry relative="1" as="geometry" />
        </mxCell>
        <mxCell id="XP3KQUoHiulQaQNEzh06-38" value="Only Stream Operator" style="edgeLabel;html=1;align=center;verticalAlign=middle;resizable=0;points=[];" vertex="1" connectable="0" parent="XP3KQUoHiulQaQNEzh06-10">
          <mxGeometry x="-0.15" y="-1" relative="1" as="geometry">
            <mxPoint as="offset" />
          </mxGeometry>
        </mxCell>
        <mxCell id="XP3KQUoHiulQaQNEzh06-11" value="Withdraw&lt;br&gt;(Action)" style="rounded=0;whiteSpace=wrap;html=1;fillColor=#dae8fc;strokeColor=#6c8ebf;" vertex="1" parent="6e4VLR58HWhX286N4Tfz-1">
          <mxGeometry x="390" y="40" width="120" height="60" as="geometry" />
        </mxCell>
        <mxCell id="XP3KQUoHiulQaQNEzh06-12" value="" style="edgeStyle=orthogonalEdgeStyle;rounded=0;orthogonalLoop=1;jettySize=auto;html=1;" edge="1" parent="6e4VLR58HWhX286N4Tfz-1" source="XP3KQUoHiulQaQNEzh06-15" target="XP3KQUoHiulQaQNEzh06-16">
          <mxGeometry relative="1" as="geometry" />
        </mxCell>
        <mxCell id="XP3KQUoHiulQaQNEzh06-13" value="No" style="edgeLabel;html=1;align=center;verticalAlign=middle;resizable=0;points=[];" vertex="1" connectable="0" parent="XP3KQUoHiulQaQNEzh06-12">
          <mxGeometry x="0.1429" y="4" relative="1" as="geometry">
            <mxPoint as="offset" />
          </mxGeometry>
        </mxCell>
        <mxCell id="XP3KQUoHiulQaQNEzh06-14" value="Yes" style="edgeStyle=orthogonalEdgeStyle;rounded=0;orthogonalLoop=1;jettySize=auto;html=1;" edge="1" parent="6e4VLR58HWhX286N4Tfz-1" source="XP3KQUoHiulQaQNEzh06-15" target="XP3KQUoHiulQaQNEzh06-18">
          <mxGeometry relative="1" as="geometry" />
        </mxCell>
        <mxCell id="XP3KQUoHiulQaQNEzh06-15" value="&lt;font style=&quot;font-size: 9px&quot;&gt;Has sufficient&lt;br&gt;&amp;nbsp;accrued balance&lt;/font&gt;" style="rhombus;whiteSpace=wrap;html=1;rounded=0;fillColor=#fff2cc;strokeColor=#d6b656;" vertex="1" parent="6e4VLR58HWhX286N4Tfz-1">
          <mxGeometry x="400" y="140" width="100" height="100" as="geometry" />
        </mxCell>
        <mxCell id="XP3KQUoHiulQaQNEzh06-16" value="Revert" style="whiteSpace=wrap;html=1;rounded=0;fillColor=#f8cecc;strokeColor=#b85450;" vertex="1" parent="6e4VLR58HWhX286N4Tfz-1">
          <mxGeometry x="570" y="160" width="120" height="60" as="geometry" />
        </mxCell>
        <mxCell id="XP3KQUoHiulQaQNEzh06-17" value="" style="edgeStyle=orthogonalEdgeStyle;rounded=0;orthogonalLoop=1;jettySize=auto;html=1;" edge="1" parent="6e4VLR58HWhX286N4Tfz-1" source="XP3KQUoHiulQaQNEzh06-18" target="XP3KQUoHiulQaQNEzh06-19">
          <mxGeometry relative="1" as="geometry" />
        </mxCell>
        <mxCell id="XP3KQUoHiulQaQNEzh06-18" value="Increase token balance for recipent&amp;nbsp;" style="whiteSpace=wrap;html=1;rounded=0;fillColor=#f5f5f5;strokeColor=#666666;fontColor=#333333;" vertex="1" parent="6e4VLR58HWhX286N4Tfz-1">
          <mxGeometry x="390" y="280" width="120" height="60" as="geometry" />
        </mxCell>
        <mxCell id="XP3KQUoHiulQaQNEzh06-19" value="Decrease available funds in stream" style="whiteSpace=wrap;html=1;rounded=0;strokeColor=#82b366;fillColor=#d5e8d4;" vertex="1" parent="6e4VLR58HWhX286N4Tfz-1">
          <mxGeometry x="570" y="280" width="120" height="60" as="geometry" />
        </mxCell>
        <mxCell id="XP3KQUoHiulQaQNEzh06-20" value="" style="edgeStyle=orthogonalEdgeStyle;rounded=0;orthogonalLoop=1;jettySize=auto;html=1;" edge="1" parent="6e4VLR58HWhX286N4Tfz-1" source="XP3KQUoHiulQaQNEzh06-21" target="XP3KQUoHiulQaQNEzh06-25">
          <mxGeometry relative="1" as="geometry" />
        </mxCell>
        <mxCell id="XP3KQUoHiulQaQNEzh06-21" value="Balance accrual&lt;br&gt;(View)" style="rounded=0;whiteSpace=wrap;html=1;fillColor=#dae8fc;strokeColor=#6c8ebf;" vertex="1" parent="6e4VLR58HWhX286N4Tfz-1">
          <mxGeometry x="50" y="380" width="120" height="60" as="geometry" />
        </mxCell>
        <mxCell id="XP3KQUoHiulQaQNEzh06-22" value="" style="edgeStyle=orthogonalEdgeStyle;rounded=0;orthogonalLoop=1;jettySize=auto;html=1;" edge="1" parent="6e4VLR58HWhX286N4Tfz-1" source="XP3KQUoHiulQaQNEzh06-25" target="XP3KQUoHiulQaQNEzh06-26">
          <mxGeometry relative="1" as="geometry" />
        </mxCell>
        <mxCell id="XP3KQUoHiulQaQNEzh06-23" value="No" style="edgeLabel;html=1;align=center;verticalAlign=middle;resizable=0;points=[];" vertex="1" connectable="0" parent="XP3KQUoHiulQaQNEzh06-22">
          <mxGeometry x="0.1429" y="4" relative="1" as="geometry">
            <mxPoint as="offset" />
          </mxGeometry>
        </mxCell>
        <mxCell id="XP3KQUoHiulQaQNEzh06-24" value="Yes" style="edgeStyle=orthogonalEdgeStyle;rounded=0;orthogonalLoop=1;jettySize=auto;html=1;" edge="1" parent="6e4VLR58HWhX286N4Tfz-1" source="XP3KQUoHiulQaQNEzh06-25">
          <mxGeometry relative="1" as="geometry">
            <mxPoint x="110" y="620" as="targetPoint" />
          </mxGeometry>
        </mxCell>
        <mxCell id="XP3KQUoHiulQaQNEzh06-25" value="&lt;font size=&quot;1&quot;&gt;Has stream started?&lt;/font&gt;" style="rhombus;whiteSpace=wrap;html=1;rounded=0;fillColor=#fff2cc;strokeColor=#d6b656;" vertex="1" parent="6e4VLR58HWhX286N4Tfz-1">
          <mxGeometry x="60" y="480" width="100" height="100" as="geometry" />
        </mxCell>
        <mxCell id="XP3KQUoHiulQaQNEzh06-26" value="Balance: 0" style="whiteSpace=wrap;html=1;rounded=0;fillColor=#d5e8d4;strokeColor=#82b366;" vertex="1" parent="6e4VLR58HWhX286N4Tfz-1">
          <mxGeometry x="230" y="500" width="120" height="60" as="geometry" />
        </mxCell>
        <mxCell id="XP3KQUoHiulQaQNEzh06-33" value="" style="edgeStyle=orthogonalEdgeStyle;rounded=0;orthogonalLoop=1;jettySize=auto;html=1;" edge="1" parent="6e4VLR58HWhX286N4Tfz-1" source="XP3KQUoHiulQaQNEzh06-31" target="XP3KQUoHiulQaQNEzh06-32">
          <mxGeometry relative="1" as="geometry" />
        </mxCell>
        <mxCell id="XP3KQUoHiulQaQNEzh06-34" value="Yes" style="edgeLabel;html=1;align=center;verticalAlign=middle;resizable=0;points=[];" vertex="1" connectable="0" parent="XP3KQUoHiulQaQNEzh06-33">
          <mxGeometry x="-0.4286" y="2" relative="1" as="geometry">
            <mxPoint as="offset" />
          </mxGeometry>
        </mxCell>
        <mxCell id="XP3KQUoHiulQaQNEzh06-36" value="" style="edgeStyle=orthogonalEdgeStyle;rounded=0;orthogonalLoop=1;jettySize=auto;html=1;" edge="1" parent="6e4VLR58HWhX286N4Tfz-1" source="XP3KQUoHiulQaQNEzh06-31" target="XP3KQUoHiulQaQNEzh06-35">
          <mxGeometry relative="1" as="geometry" />
        </mxCell>
        <mxCell id="XP3KQUoHiulQaQNEzh06-31" value="&lt;font size=&quot;1&quot;&gt;Has stream finished&lt;/font&gt;" style="rhombus;whiteSpace=wrap;html=1;rounded=0;fillColor=#fff2cc;strokeColor=#d6b656;" vertex="1" parent="6e4VLR58HWhX286N4Tfz-1">
          <mxGeometry x="60" y="620" width="100" height="100" as="geometry" />
        </mxCell>
        <mxCell id="XP3KQUoHiulQaQNEzh06-32" value="Balance: Deposited - already withdrawn" style="whiteSpace=wrap;html=1;rounded=0;strokeColor=#82b366;fillColor=#d5e8d4;" vertex="1" parent="6e4VLR58HWhX286N4Tfz-1">
          <mxGeometry x="230" y="640" width="120" height="60" as="geometry" />
        </mxCell>
        <mxCell id="XP3KQUoHiulQaQNEzh06-35" value="Calculate accrued based on time elapsed" style="whiteSpace=wrap;html=1;rounded=0;strokeColor=#82b366;fillColor=#d5e8d4;" vertex="1" parent="6e4VLR58HWhX286N4Tfz-1">
          <mxGeometry x="50" y="760" width="120" height="60" as="geometry" />
        </mxCell>
      </root>
    </mxGraphModel>
  </diagram>
</mxfile>
